<?xml version="1.0" encoding="UTF-8" standalone="no"?>
<svg
   width="1000"
   height="1000"
   viewBox="0 0 1000 1000"
   version="1.1"
   xml:space="preserve"
   id="SVGRoot"
   inkscape:version="1.4.2 (ebf0e94, 2025-05-08)"
   sodipodi:docname="drawing-122.svg"
   inkscape:export-filename="drawing-1332.png"
   inkscape:export-xdpi="96"
   inkscape:export-ydpi="96"
   xmlns:inkscape="http://www.inkscape.org/namespaces/inkscape"
   xmlns:sodipodi="http://sodipodi.sourceforge.net/DTD/sodipodi-0.dtd"
   xmlns:xlink="http://www.w3.org/1999/xlink"
   xmlns="http://www.w3.org/2000/svg"
   xmlns:svg="http://www.w3.org/2000/svg"><defs
   id="defs2"><linearGradient
     id="linearGradient30"
     inkscape:collect="always"><stop
       style="stop-color:#00ffff;stop-opacity:1;"
       offset="0"
       id="stop30" /><stop
       style="stop-color:#0800fe;stop-opacity:1;"
       offset="1"
       id="stop31" /></linearGradient><linearGradient
     inkscape:collect="always"
     xlink:href="#linearGradient30"
     id="linearGradient32"
     x1="931.39258"
     y1="221.11742"
     x2="68.607422"
     y2="805.04492"
     gradientUnits="userSpaceOnUse" /><linearGradient
     inkscape:collect="always"
     xlink:href="#linearGradient30"
     id="linearGradient34"
     gradientUnits="userSpaceOnUse"
     x1="931.39258"
     y1="221.11742"
     x2="68.607422"
     y2="805.04492" /><linearGradient
     inkscape:collect="always"
     xlink:href="#linearGradient30"
     id="linearGradient35"
     gradientUnits="userSpaceOnUse"
     x1="0"
     y1="1000"
     x2="1005.3245"
     y2="-5.32445" /></defs>
  <sodipodi:namedview
   pagecolor="#ffffff"
   bordercolor="#000000"
   borderopacity="1"
   inkscape:showpageshadow="2"
   inkscape:pageopacity="0.0"
   inkscape:pagecheckerboard="0"
   inkscape:deskcolor="#232323"
   id="namedview1"
   inkscape:zoom="0.35748176"
   inkscape:cx="872.7718"
   inkscape:cy="267.1465"
   inkscape:window-width="1366"
   inkscape:window-height="699"
   inkscape:window-x="0"
   inkscape:window-y="0"
   inkscape:window-maximized="1"
   inkscape:current-layer="SVGRoot" />
 <style
   type="text/css"
   id="style1">
g.prefab path {
  vector-effect:non-scaling-stroke;
  -inkscape-stroke:hairline;
  fill: none;
  fill-opacity: 1;
  stroke-opacity: 1;
  stroke: #00349c;
}
 </style>
 <g
   inkscape:groupmode="layer"
   id="layer2"
   inkscape:label="Layer 1"
   sodipodi:insensitive="true"><rect
     style="font-variation-settings:normal;opacity:1;fill:url(#linearGradient35);fill-opacity:1;stroke:none;stroke-width:10.6489;stroke-linecap:butt;stroke-linejoin:miter;stroke-miterlimit:4;stroke-dasharray:none;stroke-dashoffset:0;stroke-opacity:1"
     id="rect30"
     width="1000"
     height="1000"
     x="0"
     y="0" /></g><g
   id="g34"
   transform="matrix(1.6386771,0,0,1.6386771,-319.33855,-319.33855)"
   style="opacity:0.3"><path
     id="path33"
     style="fill:url(#linearGradient34);fill-opacity:1;stroke:#00ffff;stroke-width:0;stroke-dasharray:none"
     d="m 373.63867,194.95508 -89.33203,89.33398 215.6875,215.69922 h 0.0117 L 715.70508,284.28906 626.36133,194.95508 H 499.99414 Z M 194.96094,373.63281 68.607422,499.98828 194.96094,626.35352 V 499.98828 Z m 610.07812,0 V 499.98828 626.35352 L 931.39258,499.98828 Z M 499.99414,500 l -215.6875,215.6875 89.3457,89.35742 h 126.3418 126.35352 l 89.35742,-89.35742 z" /><path
     id="path34"
     style="font-variation-settings:normal;opacity:1;fill:#ffffff;fill-opacity:1;stroke:#00ffff;stroke-width:0;stroke-linecap:butt;stroke-linejoin:miter;stroke-miterlimit:4;stroke-dasharray:none;stroke-dashoffset:0;stroke-opacity:1"
     d="m 284.30664,284.28906 -89.3457,89.34375 V 626.35352 L 284.30664,715.6875 499.99414,500 Z M 499.99414,500 715.70508,715.6875 805.03906,626.35352 V 373.63281 l -89.33398,-89.34375 z" /></g>
<g
   id="g32"
   transform="matrix(0.81195347,0,0,0.81195347,94.023264,94.023265)"><path
     id="path17"
     style="fill:url(#linearGradient32);fill-opacity:1;stroke:#00ffff;stroke-width:0;stroke-dasharray:none"
     d="m 373.63867,194.95508 -89.33203,89.33398 215.6875,215.69922 h 0.0117 L 715.70508,284.28906 626.36133,194.95508 H 499.99414 Z M 194.96094,373.63281 68.607422,499.98828 194.96094,626.35352 V 499.98828 Z m 610.07812,0 V 499.98828 626.35352 L 931.39258,499.98828 Z M 499.99414,500 l -215.6875,215.6875 89.3457,89.35742 h 126.3418 126.35352 l 89.35742,-89.35742 z" /><path
     id="path18"
     style="font-variation-settings:normal;opacity:1;fill:#ffffff;fill-opacity:1;stroke:#00ffff;stroke-width:0;stroke-linecap:butt;stroke-linejoin:miter;stroke-miterlimit:4;stroke-dasharray:none;stroke-dashoffset:0;stroke-opacity:1"
     d="m 284.30664,284.28906 -89.3457,89.34375 V 626.35352 L 284.30664,715.6875 499.99414,500 Z M 499.99414,500 715.70508,715.6875 805.03906,626.35352 V 373.63281 l -89.33398,-89.34375 z" /></g><path
   d="M 2821.5809,556.92066 H 2695.2264 V 683.28699 Z"
   style="fill:#0000ff;stroke:#00ffff;stroke-width:0;stroke-dasharray:none"
   id="path20" /><path
   d="m 2695.2264,430.56617 v 126.35449 h 126.3545 z"
   style="fill:#0000ff;stroke:#00ffff;stroke-width:0;stroke-dasharray:none"
   id="path21" /><path
   d="M 2085.1496,683.28699 V 556.92066 h -126.3544 z"
   style="fill:#0000ff;stroke:#00ffff;stroke-width:0;stroke-dasharray:none"
   id="path22" /><path
   d="M 2085.1496,556.92066 V 430.56617 l -126.3544,126.35449 z"
   style="fill:#0000ff;stroke:#00ffff;stroke-width:0;stroke-dasharray:none"
   id="path23" /><path
   d="M 2390.1821,861.97683 V 556.93249 l -215.6876,215.68758 89.3449,89.35676 z"
   style="fill:#0000ff;stroke:#00ffff;stroke-width:0;stroke-dasharray:none"
   id="path24" /><path
   d="m 2516.5365,861.97683 89.3568,-89.35676 -215.7112,-215.68758 v 305.04434 z"
   style="font-variation-settings:normal;fill:#0000ff;fill-opacity:1;stroke:#00ffff;stroke-width:0;stroke-linecap:butt;stroke-linejoin:miter;stroke-miterlimit:4;stroke-dasharray:none;stroke-dashoffset:0;stroke-opacity:1;stop-color:#000000"
   id="path25" /><path
   d="m 2390.1821,251.88822 h -126.3545 l -89.3331,89.33309 215.6876,215.69935 z"
   style="fill:#0000ff;stroke:#00ffff;stroke-width:0;stroke-dasharray:none"
   id="path26" /><path
   d="m 2516.5484,251.88822 h -126.3663 v 305.03244 h 0.012 L 2605.894,341.22131 Z"
   style="fill:#0000ff;stroke:#00ffff;stroke-width:0;stroke-dasharray:none"
   id="path27" /><path
   style="font-variation-settings:normal;opacity:1;fill:#ffffff;fill-opacity:1;stroke:#00ffff;stroke-width:0;stroke-linecap:butt;stroke-linejoin:miter;stroke-miterlimit:4;stroke-dasharray:none;stroke-dashoffset:0;stroke-opacity:1"
   d="m 2085.1496,430.56617 89.3449,-89.34486 215.6876,215.71118 -215.6876,215.68758 -89.3449,-89.33308 z"
   id="path28" /><path
   style="font-variation-settings:normal;opacity:1;fill:#ffffff;fill-opacity:1;stroke:#00ffff;stroke-width:0;stroke-linecap:butt;stroke-linejoin:miter;stroke-miterlimit:4;stroke-dasharray:none;stroke-dashoffset:0;stroke-opacity:1"
   d="m 2605.8936,341.22131 89.3328,89.34486 v 252.72082 l -89.3331,89.33308 -215.7112,-215.68758 z"
   id="path29" /><path
   style="opacity:1;fill:#ffffff;stroke-width:10.6489"
   d="M 602.59952,252.31772 H 397.40212 L 500.00482,149.72453 Z"
   id="path1" /><path
   style="opacity:1;fill:#ffffff;stroke-width:10.6489"
   d="m 602.59394,747.68228 h -205.1974 l 102.6027,102.59319 z"
   id="path2" /></svg>
